<?xml version="1.0" encoding="UTF-8" standalone="no"?>
<!-- Created with Inkscape (http://www.inkscape.org/) -->

<svg
   xmlns:osb="http://www.openswatchbook.org/uri/2009/osb"
   xmlns:dc="http://purl.org/dc/elements/1.1/"
   xmlns:cc="http://creativecommons.org/ns#"
   xmlns:rdf="http://www.w3.org/1999/02/22-rdf-syntax-ns#"
   xmlns:svg="http://www.w3.org/2000/svg"
   xmlns="http://www.w3.org/2000/svg"
   xmlns:xlink="http://www.w3.org/1999/xlink"
   xmlns:sodipodi="http://sodipodi.sourceforge.net/DTD/sodipodi-0.dtd"
   xmlns:inkscape="http://www.inkscape.org/namespaces/inkscape"
   width="297mm"
   height="210mm"
   viewBox="0 0 1052.3622 744.09448"
   id="svg4291"
   version="1.1"
   inkscape:version="0.92.2 5c3e80d, 2017-08-06"
   sodipodi:docname="portfolio-baseicon.svg">
  <defs
     id="defs4293">
    <linearGradient
       id="linearGradient4234"
       osb:paint="solid">
      <stop
         style="stop-color:#000000;stop-opacity:1;"
         offset="0"
         id="stop4236" />
    </linearGradient>
    <linearGradient
       inkscape:collect="always"
       id="linearGradient4857">
      <stop
         style="stop-color:#000000;stop-opacity:1;"
         offset="0"
         id="stop4859" />
      <stop
         style="stop-color:#000000;stop-opacity:0;"
         offset="1"
         id="stop4861" />
    </linearGradient>
    <linearGradient
       inkscape:collect="always"
       xlink:href="#linearGradient4857"
       id="linearGradient4863"
       x1="154.66455"
       y1="638.58425"
       x2="852.38432"
       y2="638.58425"
       gradientUnits="userSpaceOnUse"
       gradientTransform="translate(2.6015684,-155.3222)" />
    <linearGradient
       inkscape:collect="always"
       xlink:href="#linearGradient4857"
       id="linearGradient4912"
       gradientUnits="userSpaceOnUse"
       gradientTransform="matrix(0.33519187,0,0,0.3351919,320.39324,781.72384)"
       x1="154.66455"
       y1="638.58425"
       x2="852.38432"
       y2="638.58425" />
    <linearGradient
       inkscape:collect="always"
       xlink:href="#linearGradient4857"
       id="linearGradient4978"
       gradientUnits="userSpaceOnUse"
       gradientTransform="matrix(1.1748978,0,0,1.1748978,73.229978,-5.5546997)"
       x1="154.66455"
       y1="638.58425"
       x2="852.38432"
       y2="638.58425" />
    <linearGradient
       inkscape:collect="always"
       xlink:href="#linearGradient4857"
       id="linearGradient4990"
       gradientUnits="userSpaceOnUse"
       gradientTransform="matrix(1.1748978,0,0,1.1748978,-180.82003,-8.1615395)"
       x1="154.66455"
       y1="638.58425"
       x2="852.38432"
       y2="638.58425" />
    <linearGradient
       inkscape:collect="always"
       xlink:href="#linearGradient4857"
       id="linearGradient4451"
       gradientUnits="userSpaceOnUse"
       gradientTransform="matrix(1.2100822,0,0,1.2100822,-65.821728,165.50881)"
       x1="154.66455"
       y1="638.58425"
       x2="852.38432"
       y2="638.58425" />
    <inkscape:perspective
       id="perspective4677"
       inkscape:persp3d-origin="148.5 : 70 : 1"
       inkscape:vp_z="297 : 105 : 1"
       inkscape:vp_y="0 : 1000 : 0"
       inkscape:vp_x="0 : 105 : 1"
       sodipodi:type="inkscape:persp3d" />
    <linearGradient
       id="linearGradient1119"
       inkscape:collect="always">
      <stop
         id="stop1115"
         offset="0"
         style="stop-color:#3771c8;stop-opacity:1;" />
      <stop
         id="stop1117"
         offset="1"
         style="stop-color:#3771c8;stop-opacity:0;" />
    </linearGradient>
    <clipPath
       id="clipPath2129"
       clipPathUnits="userSpaceOnUse">
      <rect
         y="264.17773"
         x="100.73038"
         height="28.068689"
         width="29.426851"
         id="rect2131"
         style="fill:#cccccc;fill-opacity:1;stroke:none;stroke-width:0;stroke-linejoin:miter;stroke-miterlimit:4;stroke-dasharray:none;stroke-opacity:1" />
    </clipPath>
    <clipPath
       id="clipPath229"
       clipPathUnits="userSpaceOnUse">
      <rect
         y="212.16768"
         x="83.871948"
         height="65.945122"
         width="65.625"
         id="rect231"
         style="fill:#000000;fill-opacity:0;stroke:#decd87;stroke-width:0.235;stroke-miterlimit:4;stroke-dasharray:none;stroke-opacity:0.99607843" />
    </clipPath>
    <linearGradient
       gradientUnits="userSpaceOnUse"
       y2="250.98602"
       x2="198.57388"
       y1="267.31021"
       x1="214.82501"
       id="linearGradient1121"
       xlink:href="#linearGradient1119"
       inkscape:collect="always" />
    <clipPath
       clipPathUnits="userSpaceOnUse"
       id="clipPath2129-4">
      <rect
         style="fill:#cccccc;fill-opacity:1;stroke:none;stroke-width:0;stroke-linejoin:miter;stroke-miterlimit:4;stroke-dasharray:none;stroke-opacity:1"
         id="rect2131-8"
         width="29.426851"
         height="28.068689"
         x="100.73038"
         y="264.17773" />
    </clipPath>
    <clipPath
       clipPathUnits="userSpaceOnUse"
       id="clipPath229-3">
      <rect
         style="fill:#000000;fill-opacity:0;stroke:#decd87;stroke-width:0.235;stroke-miterlimit:4;stroke-dasharray:none;stroke-opacity:0.99607843"
         id="rect231-9"
         width="65.625"
         height="65.945122"
         x="83.871948"
         y="212.16768" />
    </clipPath>
  </defs>
  <sodipodi:namedview
     id="base"
     pagecolor="#ffffff"
     bordercolor="#666666"
     borderopacity="1.0"
     inkscape:pageopacity="0.0"
     inkscape:pageshadow="2"
     inkscape:zoom="1.1132009"
     inkscape:cx="84.945495"
     inkscape:cy="151.23818"
     inkscape:document-units="px"
     inkscape:current-layer="layer1"
     showgrid="false"
     inkscape:window-width="1440"
     inkscape:window-height="855"
     inkscape:window-x="0"
     inkscape:window-y="1"
     inkscape:window-maximized="1" />
  <metadata
     id="metadata4296">
    <rdf:RDF>
      <cc:Work
         rdf:about="">
        <dc:format>image/svg+xml</dc:format>
        <dc:type
           rdf:resource="http://purl.org/dc/dcmitype/StillImage" />
        <dc:title />
      </cc:Work>
    </rdf:RDF>
  </metadata>
  <g
     inkscape:label="Layer 1"
     inkscape:groupmode="layer"
     id="layer1"
     transform="translate(0,-308.26772)">
    <path
       inkscape:export-ydpi="68.010002"
       inkscape:export-xdpi="68.010002"
       inkscape:export-filename="/Users/alcemirsantos/Workspace/LESWorkspace/les-prp-uespi.github.io/img/profile.png"
       transform="scale(-1,1)"
       d="M -795.43825,600.99915 A 150.41315,148.81577 0 0 1 -638.54505,459.06539 150.41315,148.81577 0 0 1 -494.90492,614.12676 150.41315,148.81577 0 0 1 -651.4631,756.42217 150.41315,148.81577 0 0 1 -795.46838,601.69269"
       sodipodi:end="3.1822154"
       sodipodi:start="3.1868801"
       sodipodi:ry="148.81577"
       sodipodi:rx="150.41315"
       sodipodi:cy="607.73633"
       sodipodi:cx="-645.17932"
       sodipodi:type="arc"
       id="path203"
       style="fill:#e6e6e6;fill-opacity:1;stroke:#e6e6e6;stroke-width:29.98052216;stroke-miterlimit:4;stroke-dasharray:none"
       sodipodi:open="true" />
    <path
       style="display:inline;fill:none;fill-rule:evenodd;stroke:#000000;stroke-width:2.74984789;stroke-linecap:butt;stroke-linejoin:miter;stroke-miterlimit:4;stroke-dasharray:none;stroke-opacity:1"
       d="m -6.08538,560.87134 v 0"
       id="path4274"
       inkscape:connector-type="polyline"
       inkscape:connector-curvature="0"
       inkscape:export-xdpi="35.873894"
       inkscape:export-ydpi="35.873894" />
    <path
       style="opacity:0;fill:none;fill-opacity:1;stroke:#ff0000;stroke-width:3;stroke-linecap:round;stroke-linejoin:bevel;stroke-miterlimit:4;stroke-dasharray:none;stroke-opacity:1"
       id="path4409"
       sodipodi:type="arc"
       sodipodi:cx="489.10114"
       sodipodi:cy="544.04639"
       sodipodi:rx="490.84793"
       sodipodi:ry="237.56342"
       sodipodi:start="3.1868839"
       sodipodi:end="3.1834631"
       sodipodi:open="true"
       d="M -1.2434443,533.29052 A 490.84793,237.56342 0 0 1 510.9053,306.71747 490.84793,237.56342 0 0 1 979.48301,554.39632 490.84793,237.56342 0 0 1 468.13572,781.393 490.84793,237.56342 0 0 1 -1.3165973,534.10241" />
    <path
       inkscape:export-ydpi="308.23956"
       inkscape:export-xdpi="308.23956"
       inkscape:export-filename="/Users/alcemirsantos/Documents/Workspace/alcemirsantos.github.io/img/portfolio/cotonet.png"
       sodipodi:nodetypes="ccccc"
       inkscape:connector-curvature="0"
       id="path4269"
       d="m 23.828915,833.25668 -0.44326,188.64672 261.859595,0.216 -0.75666,-187.45088 z"
       style="fill:#214478;fill-rule:evenodd;stroke:#162d50;stroke-width:0.92227995px;stroke-linecap:butt;stroke-linejoin:miter;stroke-opacity:1" />
    <g
       id="g465"
       inkscape:export-xdpi="308.23956"
       inkscape:export-ydpi="308.23956">
      <path
         style="fill:#dbe2e3;fill-rule:evenodd;stroke:#dbdee3;stroke-width:1px;stroke-linecap:butt;stroke-linejoin:miter;stroke-opacity:1"
         d="m 142.51599,910.21416 -17.47107,9.37473 c -0.33348,0.22652 -0.76764,0.36675 -0.42612,1.17184 l 2.02409,3.83511 c 0.39061,0.80114 0.78123,0.34085 1.17184,0.31959 l 11.7184,-4.90042 c 0.28142,-4.62787 1.62093,-7.23576 2.98286,-9.80085 z"
         id="path4271"
         inkscape:connector-curvature="0"
         sodipodi:nodetypes="ccccccc"
         inkscape:export-xdpi="308.23956"
         inkscape:export-ydpi="308.23956" />
      <path
         sodipodi:nodetypes="ccccc"
         inkscape:connector-curvature="0"
         id="path4273"
         d="m 155.27836,942.61654 12.19805,22.33127 -8.64545,0.12886 -9.15722,-13.33724 z"
         style="fill:#dbe2e3;fill-rule:evenodd;stroke:#dbdee3;stroke-width:1px;stroke-linecap:butt;stroke-linejoin:miter;stroke-opacity:1"
         inkscape:export-xdpi="308.23956"
         inkscape:export-ydpi="308.23956" />
      <path
         style="fill:#dbe2e3;fill-rule:evenodd;stroke:#dbdee3;stroke-width:1px;stroke-linecap:butt;stroke-linejoin:miter;stroke-opacity:1"
         d="m 151.65631,907.67439 13.84928,17.99014 c 1.95375,-1.26835 3.50355,-0.45289 5.17841,1.52667 l 3.16249,-2.48712 c 0.90552,-0.72432 1.71361,-0.57171 2.41826,0.51182 l 7.59353,8.42014 c 0.79397,0.89305 0.15851,1.50022 -0.5223,2.09831 l -14.77265,13.04835 c -0.71668,0.58531 -1.38794,1.35227 -2.58995,-0.004 l -7.31038,-9.06255 c -1.15715,-1.28533 -0.8407,-1.91573 -0.20797,-2.40555 l 3.46396,-3.39092 c -1.78914,-1.73203 -2.05244,-3.05068 -0.85578,-4.55445 l -8.14712,-9.1758 0.2055,18.27319 -17.33612,26.57645 -7.55187,0.34818 -0.47243,-1.60926 14.45096,-28.31718 0.64363,-16.74623 c 1.48191,-5.09069 5.14479,-13.38474 8.80055,-11.04045 z"
         id="path4275"
         inkscape:connector-curvature="0"
         sodipodi:nodetypes="ccccccccccccccccccccc"
         inkscape:export-xdpi="308.23956"
         inkscape:export-ydpi="308.23956" />
      <path
         style="fill:#006680;fill-opacity:1;fill-rule:evenodd;stroke:none;stroke-width:1px;stroke-linecap:butt;stroke-linejoin:miter;stroke-opacity:1"
         d="m 162.86808,931.19272 1.24293,1.43124 4.44439,-3.91709 -1.16759,-1.31825 z"
         id="path4277"
         inkscape:connector-curvature="0"
         inkscape:export-xdpi="308.23956"
         inkscape:export-ydpi="308.23956" />
      <path
         inkscape:export-ydpi="308.23956"
         inkscape:export-xdpi="308.23956"
         inkscape:export-filename="/Users/alcemirsantos/Documents/Workspace/alcemirsantos.github.io/img/portfolio/cotonet.png"
         transform="scale(-1,1)"
         d="m -210.89116,924.80947 a 60.710178,60.065441 0 0 1 63.32568,-57.28771 60.710178,60.065441 0 0 1 57.976432,62.58631 60.710178,60.065441 0 0 1 -63.190452,57.43368 60.710178,60.065441 0 0 1 -58.12382,-62.45235"
         sodipodi:end="3.1822154"
         sodipodi:start="3.1868801"
         sodipodi:ry="60.065441"
         sodipodi:rx="60.710178"
         sodipodi:cy="927.52875"
         sodipodi:cx="-150.24323"
         sodipodi:type="arc"
         id="path4279"
         style="fill:none;fill-opacity:1;stroke:#dbdee3;stroke-width:12.1008234;stroke-miterlimit:4;stroke-dasharray:none"
         sodipodi:open="true" />
      <path
         inkscape:export-ydpi="308.23956"
         inkscape:export-xdpi="308.23956"
         inkscape:export-filename="/Users/alcemirsantos/Documents/Workspace/alcemirsantos.github.io/img/portfolio/cotonet.png"
         transform="scale(-1,1)"
         d="m -155.91951,897.48814 a 6.5559902,6.243969 0 0 1 6.82486,-5.95578 6.5559902,6.243969 0 0 1 6.27546,6.48072 6.5559902,6.243969 0 0 1 -6.7842,5.99775 6.5559902,6.243969 0 0 1 -6.31941,-6.44186 l 6.55256,0.20184 z"
         sodipodi:end="3.1739245"
         sodipodi:start="3.1868801"
         sodipodi:ry="6.243969"
         sodipodi:rx="6.5559902"
         sodipodi:cy="897.77081"
         sodipodi:cx="-149.37024"
         sodipodi:type="arc"
         id="path4281"
         style="fill:#dbe2e3;fill-opacity:1;stroke:#dbdee3;stroke-width:1.28209841;stroke-miterlimit:4;stroke-dasharray:none" />
    </g>
    <path
       inkscape:export-ydpi="308.23956"
       inkscape:export-xdpi="308.23956"
       inkscape:export-filename="/Users/alcemirsantos/Documents/Workspace/alcemirsantos.github.io/img/portfolio/cotonet.png"
       sodipodi:nodetypes="ccccc"
       inkscape:connector-curvature="0"
       id="path60"
       d="m 23.072257,610.18079 -0.44326,188.64671 261.859593,0.21602 -0.75666,-187.45089 z"
       style="fill:#162d50;fill-rule:evenodd;stroke:#162d50;stroke-width:0.92227995px;stroke-linecap:butt;stroke-linejoin:miter;stroke-opacity:1" />
    <path
       sodipodi:open="true"
       style="fill:#e6e6e6;fill-opacity:1;stroke:#e6e6e6;stroke-width:12.1008234;stroke-miterlimit:4;stroke-dasharray:none"
       id="path62"
       sodipodi:type="arc"
       sodipodi:cx="-149.48654"
       sodipodi:cy="704.45288"
       sodipodi:rx="60.710178"
       sodipodi:ry="60.065441"
       sodipodi:start="3.1868801"
       sodipodi:end="3.1822154"
       d="m -210.13447,701.7336 a 60.710178,60.065441 0 0 1 63.32567,-57.28771 60.710178,60.065441 0 0 1 57.976436,62.58631 60.710178,60.065441 0 0 1 -63.190456,57.43368 60.710178,60.065441 0 0 1 -58.12381,-62.45235"
       transform="scale(-1,1)"
       inkscape:export-filename="/Users/alcemirsantos/Documents/Workspace/alcemirsantos.github.io/img/portfolio/cotonet.png"
       inkscape:export-xdpi="308.23956"
       inkscape:export-ydpi="308.23956" />
    <text
       xml:space="preserve"
       style="font-style:normal;font-variant:normal;font-weight:normal;font-stretch:normal;font-size:28.75px;line-height:1.25;font-family:'Hiragino Kaku Gothic Std';-inkscape-font-specification:'Hiragino Kaku Gothic Std';letter-spacing:0px;word-spacing:0px;fill:#000000;fill-opacity:1;stroke:none;stroke-width:0.93749994"
       x="1758.6487"
       y="244.13634"
       id="text1483"><tspan
         sodipodi:role="line"
         id="tspan1481"
         x="1758.6487"
         y="273.03009"
         style="stroke-width:0.93749994" /></text>
    <circle
       style="fill:none;fill-opacity:1;stroke:none;stroke-width:0.60011172;stroke-miterlimit:4;stroke-dasharray:none;stroke-opacity:1"
       id="path1516"
       cx="615.48846"
       cy="1394.7078"
       r="230.01492"
       inkscape:export-xdpi="100"
       inkscape:export-ydpi="100" />
    <text
       xml:space="preserve"
       style="font-style:normal;font-variant:normal;font-weight:normal;font-stretch:normal;font-size:28.06920624px;line-height:1.25;font-family:'PingFang HK';-inkscape-font-specification:'PingFang HK';letter-spacing:0px;word-spacing:0px;fill:#002b00;fill-opacity:1;stroke:none;stroke-width:0.91530025"
       x="1680.005"
       y="1230.1136"
       id="text2011"
       transform="matrix(1.120608,0,0.12227775,0.89237271,0,0)"><tspan
         sodipodi:role="line"
         id="tspan2009"
         x="1680.005"
         y="1257.7618"
         style="font-style:normal;font-variant:normal;font-weight:normal;font-stretch:normal;font-size:175.73764038px;font-family:'PingFang HK';-inkscape-font-specification:'PingFang HK';fill:#002b00;stroke-width:0.91530025" /></text>
    <text
       inkscape:export-ydpi="225.78999"
       inkscape:export-xdpi="225.78999"
       transform="matrix(1.0836386,0,-0.02347596,0.92281689,0,0)"
       id="text4910"
       y="1030.3359"
       x="524.30206"
       style="font-style:normal;font-variant:normal;font-weight:normal;font-stretch:normal;font-size:87.95704651px;line-height:1.25;font-family:Calibri;-inkscape-font-specification:Calibri;letter-spacing:0px;word-spacing:0px;fill:#373e48;fill-opacity:1;stroke:none;stroke-width:2.8681643"
       xml:space="preserve"><tspan
         style="font-style:normal;font-variant:normal;font-weight:bold;font-stretch:normal;font-family:'Hiragino Kaku Gothic StdN';-inkscape-font-specification:'Hiragino Kaku Gothic StdN Bold';fill:#373e48;stroke-width:2.8681643"
         y="1030.3359"
         x="524.30206"
         id="tspan4908"
         sodipodi:role="line">LES</tspan></text>
    <path
       id="path4912"
       d="m 773.1481,927.04171 c 0.45191,2.5234 -0.25866,5.29243 -3.20599,8.42064 l -18.09237,19.20111 c -4.28542,4.38193 -4.1805,10.96356 1.70181,16.31399 l 15.85832,14.94152 c 4.64631,4.61278 11.36052,6.9148 16.9452,1.2561 l 49.55639,-52.59178 c 2.0305,-2.15479 3.0783,-4.78095 3.1342,-7.54232 z"
       style="opacity:1;fill:#ed3237;fill-opacity:1;stroke:none;stroke-width:28.10468483;stroke-linecap:round;stroke-linejoin:round;stroke-miterlimit:4;stroke-dasharray:none;stroke-opacity:1"
       inkscape:connector-curvature="0" />
    <path
       id="path4914"
       d="m 775.60722,865.89766 c -2.52882,-0.18177 -5.25982,0.71437 -8.98589,3.39251 l -17.04423,18.08667 c -3.58774,4.60966 -4.43651,10.16078 1.67999,15.50703 l 17.25271,16.25361 c 2.34698,2.76537 4.73372,5.7538 4.76455,9.20537 h 65.71661 c 0.5268,-3.71916 -0.8798,-7.80512 -4.5504,-11.43397 l -51.06063,-48.11279 c -2.91388,-1.51601 -5.24399,-2.73175 -7.77256,-2.89843 z"
       style="fill:#ffaaaa;stroke:none;stroke-width:3.65478897px;stroke-linecap:butt;stroke-linejoin:miter;stroke-opacity:1"
       inkscape:connector-curvature="0" />
    <path
       inkscape:connector-curvature="0"
       style="opacity:1;fill:#002255;fill-opacity:1;stroke:none;stroke-width:28.10468483;stroke-linecap:round;stroke-linejoin:round;stroke-miterlimit:4;stroke-dasharray:none;stroke-opacity:1"
       d="m 521.81892,927.24528 c -0.45192,2.52308 0.25759,5.29228 3.20595,8.42067 l 18.0924,19.20111 c 4.28532,4.38193 4.18047,10.96352 -1.70177,16.31359 l -15.85836,14.94174 c -4.64627,4.61296 -11.36059,6.91462 -16.94523,1.25607 L 459.05557,934.7865 c -2.03074,-2.15462 -3.07832,-4.78056 -3.13426,-7.54193 z"
       id="path4916" />
    <path
       inkscape:connector-curvature="0"
       style="fill:#0077bd;fill-opacity:1;stroke:none;stroke-width:3.65478897px;stroke-linecap:butt;stroke-linejoin:miter;stroke-opacity:1"
       d="m 519.35979,866.10126 c 2.52882,-0.18177 5.25986,0.71437 8.98586,3.39215 l 17.04416,18.08699 c 3.58795,4.60934 4.4365,10.16082 -1.67999,15.50689 l -17.25261,16.2534 c -2.34701,2.76559 -4.73361,5.75398 -4.76458,9.20558 h -65.71662 c -0.52678,-3.71934 0.87981,-7.80498 4.55035,-11.43414 l 51.06076,-48.11262 c 2.91384,-1.5142 5.24395,-2.73157 7.77253,-2.89825 z"
       id="path4918" />
    <g
       id="g441"
       transform="matrix(1.3080975,0,0,1.3758754,-191.03011,-235.26276)"
       inkscape:export-filename="/Users/alcemirsantos/Workspace/LESWorkspace/les-prp-uespi.github.io/img/profile.png"
       inkscape:export-xdpi="68.010002"
       inkscape:export-ydpi="68.010002">
      <text
         inkscape:export-ydpi="225.78999"
         inkscape:export-xdpi="225.78999"
         transform="matrix(1.0688155,0,-0.02315483,0.93561517,0,0)"
         id="text4706"
         y="667.95905"
         x="568.84509"
         style="font-style:normal;font-variant:normal;font-weight:normal;font-stretch:normal;font-size:39.6147728px;line-height:1.25;font-family:Calibri;-inkscape-font-specification:Calibri;letter-spacing:0px;word-spacing:0px;fill:#373e48;fill-opacity:1;stroke:none;stroke-width:1.29178619"
         xml:space="preserve"><tspan
           style="font-style:normal;font-variant:normal;font-weight:bold;font-stretch:normal;font-family:'Hiragino Kaku Gothic StdN';-inkscape-font-specification:'Hiragino Kaku Gothic StdN Bold';fill:#373e48;stroke-width:1.29178619"
           y="667.95905"
           x="568.84509"
           id="tspan4704"
           sodipodi:role="line">LES</tspan></text>
      <path
         inkscape:export-ydpi="225.78999"
         inkscape:export-xdpi="225.78999"
         id="path4722"
         d="m 697.40252,611.03355 c 0.32988,1.87313 -0.1885,3.92853 -2.34227,6.25057 L 681.84202,631.537 c -3.13098,3.25261 -3.05437,8.13827 1.24334,12.10968 l 11.58598,11.09101 c 3.39459,3.42404 8.30002,5.13276 12.38021,0.93256 l 36.20579,-39.03856 c 1.48344,-1.59934 2.24894,-3.54866 2.2899,-5.59857 z"
         style="opacity:1;fill:#ed3237;fill-opacity:1;stroke:none;stroke-width:20.69692421;stroke-linecap:round;stroke-linejoin:round;stroke-miterlimit:4;stroke-dasharray:none;stroke-opacity:1"
         inkscape:connector-curvature="0" />
      <path
         inkscape:export-ydpi="225.78999"
         inkscape:export-xdpi="225.78999"
         id="path4724"
         d="m 699.19912,565.64672 c -1.84748,-0.12897 -3.8429,0.53044 -6.56504,2.51827 l -12.45249,13.42562 c -2.62127,3.4217 -3.24131,7.54218 1.22736,11.51072 l 12.60479,12.06496 c 1.71471,2.05267 3.45848,4.27103 3.48098,6.83295 h 48.01248 c 0.38417,-2.7607 -0.64329,-5.79352 -3.32451,-8.48725 l -37.30486,-35.71381 c -2.12888,-1.12482 -3.8312,-2.02772 -5.67864,-2.15146 z"
         style="fill:#ffaaaa;stroke:none;stroke-width:2.69146895px;stroke-linecap:butt;stroke-linejoin:miter;stroke-opacity:1"
         inkscape:connector-curvature="0" />
      <path
         inkscape:export-ydpi="225.78999"
         inkscape:export-xdpi="225.78999"
         inkscape:connector-curvature="0"
         style="opacity:1;fill:#002255;fill-opacity:1;stroke:none;stroke-width:20.69692421;stroke-linecap:round;stroke-linejoin:round;stroke-miterlimit:4;stroke-dasharray:none;stroke-opacity:1"
         d="m 577.03067,611.18463 c -0.32988,1.87289 0.18851,3.92854 2.34227,6.2505 l 13.21831,14.25288 c 3.1309,3.25269 3.05433,8.1382 -1.24328,12.10954 l -11.58608,11.09126 c -3.39463,3.42404 -8.30009,5.13262 -12.38024,0.93249 l -36.20573,-39.03853 c -1.48369,-1.59941 -2.24901,-3.54865 -2.28997,-5.59835 z"
         id="path4726" />
      <path
         inkscape:export-ydpi="225.78999"
         inkscape:export-xdpi="225.78999"
         inkscape:connector-curvature="0"
         style="fill:#0077bd;fill-opacity:1;stroke:none;stroke-width:2.69146895px;stroke-linecap:butt;stroke-linejoin:miter;stroke-opacity:1"
         d="m 575.23411,565.79777 c 1.84759,-0.12826 3.84289,0.5304 6.56504,2.51809 l 12.45249,13.42577 c 2.6213,3.42156 3.24128,7.54221 -1.22736,11.51068 l -12.60479,12.06489 c -1.71471,2.05274 -3.45837,4.271 -3.48098,6.83313 h -48.01252 c -0.38416,-2.76088 0.64332,-5.7936 3.32451,-8.48747 l 37.30486,-35.71366 c 2.12896,-1.12475 3.83138,-2.02766 5.67864,-2.15143 z"
         id="path4728" />
      <path
         inkscape:export-ydpi="225.78999"
         inkscape:export-xdpi="225.78999"
         style="opacity:1;fill:#806600;fill-opacity:1;stroke:none;stroke-width:20.69692421;stroke-linecap:round;stroke-linejoin:round;stroke-miterlimit:4;stroke-dasharray:none;stroke-opacity:1"
         d="m 637.93236,553.58098 c -1.85534,-0.25866 -3.85572,0.35114 -6.05151,2.63218 l -13.4792,13.9983 c -3.07148,3.31069 -7.87921,3.43169 -11.95947,-0.76964 l -11.3787,-11.31091 c -3.50543,-3.30655 -5.38529,-8.21683 -1.42136,-12.52984 l 36.91907,-38.34277 c 1.5126,-1.57188 3.39849,-2.42763 5.41261,-2.55267 z"
         id="path4734"
         inkscape:connector-curvature="0" />
      <path
         inkscape:export-ydpi="225.78999"
         inkscape:export-xdpi="225.78999"
         style="fill:#ffcc29;fill-opacity:1;stroke:none;stroke-width:2.69146895px;stroke-linecap:butt;stroke-linejoin:miter;stroke-opacity:1"
         d="m 683.44752,549.96497 c 0.19701,1.87047 -0.36489,3.92276 -2.20928,6.76708 l -12.6967,13.18762 c -3.25853,2.79999 -7.28554,3.59734 -11.36994,-0.77709 l -12.3778,-12.30516 c -2.08836,-1.65667 -4.34105,-3.33715 -6.86144,-3.25584 l -1.95314,-48.74077 c 2.69958,-0.50255 5.72372,0.41736 8.48208,3.02984 l 36.6396,36.41758 c 1.19221,2.11571 2.1499,3.80697 2.34677,5.67741 z"
         id="path4736"
         inkscape:connector-curvature="0" />
      <path
         inkscape:export-ydpi="225.78999"
         inkscape:export-xdpi="225.78999"
         inkscape:connector-curvature="0"
         style="opacity:1;fill:#483737;fill-opacity:1;stroke:none;stroke-width:20.69692421;stroke-linecap:round;stroke-linejoin:round;stroke-miterlimit:4;stroke-dasharray:none;stroke-opacity:1"
         d="m 639.80263,672.06885 c -1.84465,0.32918 -3.86593,-0.20551 -6.14382,-2.4014 l -13.98245,-13.47917 c -3.19047,-3.19234 -7.99941,-3.13143 -11.92302,1.22064 l -10.95651,11.73306 c -3.38198,3.437 -5.08053,8.41485 -0.9608,12.57487 l 38.29769,36.92045 c 1.56934,1.5126 3.48506,2.29737 5.50244,2.34613 z"
         id="path4738" />
      <path
         inkscape:export-ydpi="225.78999"
         inkscape:export-xdpi="225.78999"
         inkscape:connector-curvature="0"
         style="fill:#c8b7b7;stroke:none;stroke-width:2.69146895px;stroke-linecap:butt;stroke-linejoin:miter;stroke-opacity:1"
         d="m 684.468,674.05165 c 0.12862,-1.87678 -0.50772,-3.90607 -2.45566,-6.67885 l -13.171,-12.69829 c -3.35852,-2.67498 -7.41225,-3.31937 -11.33352,1.20784 l -11.91841,12.76473 c -2.02638,1.73413 -4.21582,3.49884 -6.73749,3.51284 l -0.16795,48.78081 c 2.71594,0.39986 5.70451,-0.63336 8.36504,-3.34835 l 35.28042,-37.77786 c 1.11398,-2.15918 2.00899,-3.88541 2.13708,-5.76209 z"
         id="path4740" />
      <text
         xml:space="preserve"
         style="font-style:normal;font-variant:normal;font-weight:normal;font-stretch:normal;font-size:5.07248259px;line-height:1.25;font-family:Calibri;-inkscape-font-specification:Calibri;letter-spacing:0px;word-spacing:0px;fill:#373e48;fill-opacity:1;stroke:none;stroke-width:0.16540706"
         x="905.82635"
         y="424.3429"
         id="text341"
         transform="matrix(0.66729602,0,-0.01445631,1.4985853,0,0)"
         inkscape:export-xdpi="225.78999"
         inkscape:export-ydpi="225.78999"><tspan
           sodipodi:role="line"
           id="tspan339"
           x="905.82635"
           y="424.3429"
           style="font-style:normal;font-variant:normal;font-weight:bold;font-stretch:normal;font-family:'Hiragino Kaku Gothic StdN';-inkscape-font-specification:'Hiragino Kaku Gothic StdN Bold';fill:#373e48;stroke-width:0.16540706">Laboratório de Engenharia  de Software</tspan></text>
    </g>
    <text
       xml:space="preserve"
       style="font-style:normal;font-variant:normal;font-weight:normal;font-stretch:normal;font-size:12.20268726px;line-height:1.25;font-family:Calibri;-inkscape-font-specification:Calibri;letter-spacing:0px;word-spacing:0px;fill:#373e48;fill-opacity:1;stroke:none;stroke-width:0.39791378"
       x="872.90363"
       y="631.82434"
       id="text345"
       transform="matrix(0.6460609,0,-0.01399627,1.5478417,0,0)"
       inkscape:export-xdpi="225.78999"
       inkscape:export-ydpi="225.78999"><tspan
         sodipodi:role="line"
         id="tspan343"
         x="872.90363"
         y="631.82434"
         style="font-style:normal;font-variant:normal;font-weight:bold;font-stretch:normal;font-family:'Hiragino Kaku Gothic StdN';-inkscape-font-specification:'Hiragino Kaku Gothic StdN Bold';fill:#373e48;stroke-width:0.39791378">Laboratório de Engenharia  de Software</tspan></text>
  </g>
</svg>
